# xmcd
#
# Track frame offsets:
#	150
#	24154
#	45051
#	67647
#	79727
#	108381
#	130943
#	150852
#	162965
#	194924
#	233851
#	251725
#	262899
#	278938
#	306259
#
# Disc length: 4620 seconds
#
# Revision: 0
# Processed by: cddbd v1.5.2PL0 Copyright (c) Steve Scherf et al.
# Submitted via: audiograbber 1.83.01
#
DISCID=b8120a0f
DTITLE=B.B. King - Best
DYEAR=1900
DGENRE=Rock
TTITLE0=Playin' With My Friends (With Robert Cray)
TTITLE1=I Pity The Fool (With John Lee Hooker)
TTITLE2=You Shook Me (With Buddy Guy)
TTITLE3=Paying The Cost, To Be The Boss
TTITLE4=Hold On, I'm Coming (With Eric Clapton)
TTITLE5=No One Ever Tells You (With Diane Schuur)
TTITLE6=Riding With The King (With Eric Clapton)
TTITLE7=Let The Good Times Roll
TTITLE8=Sweet Sixteen (With J. Josea)
TTITLE9=Why I Sing The Blues (With D.Clark)
TTITLE10=You Don't Know Me (With Diane Schuur)
TTITLE11=How Blue Can You Get (With L. Feather)
TTITLE12=Ain't Nobody Home (With J. Ragavoy)
TTITLE13=There's Something On Your Mind (With Etta James)
TTITLE14=I Gotta Move Out Of This Neighbourhood/Nobody Loves Me But My Mother
EXTD=
EXTT0=
EXTT1=
EXTT2=
EXTT3=
EXTT4=
EXTT5=
EXTT6=
EXTT7=
EXTT8=
EXTT9=
EXTT10=
EXTT11=
EXTT12=
EXTT13=
EXTT14=
PLAYORDER=
